# xmcd
#
# Track frame offsets: 
#        150
#        11891
#        26596
#        34199
#        45944
#        55765
#        65720
#        72046
#        80795
#        101078
#        119060
#        132588
#        143181
#        159439
#        173686
#
# Disc length: 2657 seconds
#
# Revision: 0
# Processed by: cddbd v1.5.2PL0 Copyright (c) Steve Scherf et al.
# Submitted via: ExactAudioCopy v0.95a4
#
DISCID=d50a5f0f
DTITLE=Whiteboy James and The Blues Express - Last Time Was The First Ti
DTITLE=me
DYEAR=2010
DGENRE=Blues
TTITLE0=Chicken And The Hawk
TTITLE1=Last Time Was The First Time
TTITLE2=By My Side
TTITLE3=Upside Your Head
TTITLE4=Reefer Man
TTITLE5=Don't Fuck Around With Love
TTITLE6=Fat Chance
TTITLE7=Have Your Way Baby
TTITLE8=Keep It Clean
TTITLE9=Worried Life Blues
TTITLE10=Walked Around The World
TTITLE11=Untamed Melody
TTITLE12=Kiss Me When I Kiss
TTITLE13=T-Bone For Daisy
TTITLE14=Shave'em Dry #2
EXTD=
EXTT0=
EXTT1=
EXTT2=
EXTT3=
EXTT4=
EXTT5=
EXTT6=
EXTT7=
EXTT8=
EXTT9=
EXTT10=
EXTT11=
EXTT12=
EXTT13=
EXTT14=
PLAYORDER=
